<?xml version="1.0" encoding="utf-8" standalone="yes"?> <svg width="1026" height="1026" viewBox="-1 -1 27 27" xmlns="http://www.w3.org/2000/svg" xmlns:xlink="http://www.w3.org/1999/xlink" shape-rendering="geometricPrecision" id="qr code"><rect id="qr background" fill-opacity="1" fill="rgb(255, 255, 255)" x="-1" y="-1" width="27" height="27" ry="1.3499999999999999"></rect><path fill-opacity="1" fill="rgb(66, 66, 66)" id="qr dark pixels" fill-rule="evenodd" d="M 8 0.2a 0.2,0.2 0 0 1 0.2,-0.2L 8.8 0a 0.2,0.2 0 0 1 0.2,0.2L 9 1.8a 0.2,0.2 0 0 0 0.2,0.2L 9.8 2a 0.2,0.2 0 0 1 0.2,0.2L 10 2.8a 0.2,0.2 0 0 0 0.2,0.2L 10.8 3a 0.2,0.2 0 0 1 0.2,0.2L 11 6.8a 0.2,0.2 0 0 0 0.2,0.2L 11.8 7a 0.2,0.2 0 0 1 0.2,0.2L 12 7.8a 0.2,0.2 0 0 1 -0.2,0.2L 11.2 8a 0.2,0.2 0 0 0 -0.2,0.2L 11 8.8a 0.2,0.2 0 0 1 -0.2,0.2L 10.2 9a 0.2,0.2 0 0 1 -0.2,-0.2L 10 6.2a 0.2,0.2 0 0 0 -0.2,-0.2L 9.2 6a 0.2,0.2 0 0 0 -0.2,0.2L 9 6.8a 0.2,0.2 0 0 1 -0.2,0.2L 8.2 7a 0.2,0.2 0 0 1 -0.2,-0.2L 8 5.2a 0.2,0.2 0 0 1 0.2,-0.2L 8.8 5a 0.2,0.2 0 0 0 0.2,-0.2L 9 4.2a 0.2,0.2 0 0 0 -0.2,-0.2L 8.2 4a 0.2,0.2 0 0 1 -0.2,-0.2z M 14 0.2a 0.2,0.2 0 0 1 0.2,-0.2L 16.8 0a 0.2,0.2 0 0 1 0.2,0.2L 17 0.8a 0.2,0.2 0 0 1 -0.2,0.2L 15.2 1a 0.2,0.2 0 0 0 -0.2,0.2L 15 3.8a 0.2,0.2 0 0 0 0.2,0.2L 15.8 4a 0.2,0.2 0 0 1 0.2,0.2L 16 4.8a 0.2,0.2 0 0 1 -0.2,0.2L 14.2 5a 0.2,0.2 0 0 1 -0.2,-0.2L 14 4.2a 0.2,0.2 0 0 0 -0.2,-0.2L 13.2 4a 0.2,0.2 0 0 0 -0.2,0.2L 13 4.8a 0.2,0.2 0 0 1 -0.2,0.2L 12.2 5a 0.2,0.2 0 0 1 -0.2,-0.2L 12 2.2a 0.2,0.2 0 0 0 -0.2,-0.2L 11.2 2a 0.2,0.2 0 0 1 -0.2,-0.2L 11 1.2a 0.2,0.2 0 0 1 0.2,-0.2L 13.8 1a 0.2,0.2 0 0 0 0.2,-0.2zM 13 2.2a 0.2,0.2 0 0 1 0.2,-0.2L 13.8 2a 0.2,0.2 0 0 1 0.2,0.2L 14 2.8a 0.2,0.2 0 0 1 -0.2,0.2L 13.2 3a 0.2,0.2 0 0 1 -0.2,-0.2z M 16 3.2a 0.2,0.2 0 0 1 0.2,-0.2L 16.8 3a 0.2,0.2 0 0 1 0.2,0.2L 17 3.8a 0.2,0.2 0 0 1 -0.2,0.2L 16.2 4a 0.2,0.2 0 0 1 -0.2,-0.2z M 16 5.2a 0.2,0.2 0 0 1 0.2,-0.2L 16.8 5a 0.2,0.2 0 0 1 0.2,0.2L 17 8.8a 0.2,0.2 0 0 0 0.2,0.2L 17.8 9a 0.2,0.2 0 0 1 0.2,0.2L 18 10.8a 0.2,0.2 0 0 0 0.2,0.2L 18.8 11a 0.2,0.2 0 0 1 0.2,0.2L 19 12.8a 0.2,0.2 0 0 1 -0.2,0.2L 18.2 13a 0.2,0.2 0 0 1 -0.2,-0.2L 18 12.2a 0.2,0.2 0 0 0 -0.2,-0.2L 17.2 12a 0.2,0.2 0 0 1 -0.2,-0.2L 17 10.2a 0.2,0.2 0 0 0 -0.2,-0.2L 16.2 10a 0.2,0.2 0 0 0 -0.2,0.2L 16 11.8a 0.2,0.2 0 0 1 -0.2,0.2L 14.2 12a 0.2,0.2 0 0 1 -0.2,-0.2L 14 11.2a 0.2,0.2 0 0 0 -0.2,-0.2L 13.2 11a 0.2,0.2 0 0 1 -0.2,-0.2L 13 10.2a 0.2,0.2 0 0 1 0.2,-0.2L 13.8 10a 0.2,0.2 0 0 0 0.2,-0.2L 14 6.2a 0.2,0.2 0 0 1 0.2,-0.2L 14.8 6a 0.2,0.2 0 0 1 0.2,0.2L 15 8.8a 0.2,0.2 0 0 0 0.2,0.2L 15.8 9a 0.2,0.2 0 0 0 0.2,-0.2z M 12 6.2a 0.2,0.2 0 0 1 0.2,-0.2L 12.8 6a 0.2,0.2 0 0 1 0.2,0.2L 13 6.8a 0.2,0.2 0 0 1 -0.2,0.2L 12.2 7a 0.2,0.2 0 0 1 -0.2,-0.2z M 0 8.2a 0.2,0.2 0 0 1 0.2,-0.2L 1.8 8a 0.2,0.2 0 0 1 0.2,0.2L 2 8.8a 0.2,0.2 0 0 1 -0.2,0.2L 1.2 9a 0.2,0.2 0 0 0 -0.2,0.2L 1 9.8a 0.2,0.2 0 0 1 -0.2,0.2L 0.2 10a 0.2,0.2 0 0 1 -0.2,-0.2z M 4 8.2a 0.2,0.2 0 0 1 0.2,-0.2L 6.8 8a 0.2,0.2 0 0 1 0.2,0.2L 7 8.8a 0.2,0.2 0 0 1 -0.2,0.2L 6.2 9a 0.2,0.2 0 0 0 -0.2,0.2L 6 9.8a 0.2,0.2 0 0 0 0.2,0.2L 7.8 10a 0.2,0.2 0 0 1 0.2,0.2L 8 10.8a 0.2,0.2 0 0 0 0.2,0.2L 8.8 11a 0.2,0.2 0 0 0 0.2,-0.2L 9 10.2a 0.2,0.2 0 0 1 0.2,-0.2L 10.8 10a 0.2,0.2 0 0 1 0.2,0.2L 11 10.8a 0.2,0.2 0 0 1 -0.2,0.2L 10.2 11a 0.2,0.2 0 0 0 -0.2,0.2L 10 11.8a 0.2,0.2 0 0 1 -0.2,0.2L 7.2 12a 0.2,0.2 0 0 1 -0.2,-0.2L 7 11.2a 0.2,0.2 0 0 0 -0.2,-0.2L 4.2 11a 0.2,0.2 0 0 0 -0.2,0.2L 4 11.8a 0.2,0.2 0 0 1 -0.2,0.2L 3.2 12a 0.2,0.2 0 0 1 -0.2,-0.2L 3 10.2a 0.2,0.2 0 0 1 0.2,-0.2L 3.8 10a 0.2,0.2 0 0 0 0.2,-0.2z M 12 8.2a 0.2,0.2 0 0 1 0.2,-0.2L 12.8 8a 0.2,0.2 0 0 1 0.2,0.2L 13 8.8a 0.2,0.2 0 0 1 -0.2,0.2L 12.2 9a 0.2,0.2 0 0 1 -0.2,-0.2z M 19 8.2a 0.2,0.2 0 0 1 0.2,-0.2L 19.8 8a 0.2,0.2 0 0 1 0.2,0.2L 20 8.8a 0.2,0.2 0 0 1 -0.2,0.2L 19.2 9a 0.2,0.2 0 0 1 -0.2,-0.2z M 21 8.2a 0.2,0.2 0 0 1 0.2,-0.2L 24.8 8a 0.2,0.2 0 0 1 0.2,0.2L 25 8.8a 0.2,0.2 0 0 1 -0.2,0.2L 24.2 9a 0.2,0.2 0 0 0 -0.2,0.2L 24 9.8a 0.2,0.2 0 0 1 -0.2,0.2L 23.2 10a 0.2,0.2 0 0 1 -0.2,-0.2L 23 9.2a 0.2,0.2 0 0 0 -0.2,-0.2L 22.2 9a 0.2,0.2 0 0 0 -0.2,0.2L 22 9.8a 0.2,0.2 0 0 0 0.2,0.2L 22.8 10a 0.2,0.2 0 0 1 0.2,0.2L 23 10.8a 0.2,0.2 0 0 0 0.2,0.2L 23.8 11a 0.2,0.2 0 0 1 0.2,0.2L 24 11.8a 0.2,0.2 0 0 0 0.2,0.2L 24.8 12a 0.2,0.2 0 0 1 0.2,0.2L 25 12.8a 0.2,0.2 0 0 1 -0.2,0.2L 24.2 13a 0.2,0.2 0 0 0 -0.2,0.2L 24 13.8a 0.2,0.2 0 0 1 -0.2,0.2L 23.2 14a 0.2,0.2 0 0 1 -0.2,-0.2L 23 13.2a 0.2,0.2 0 0 0 -0.2,-0.2L 21.2 13a 0.2,0.2 0 0 1 -0.2,-0.2L 21 12.2a 0.2,0.2 0 0 1 0.2,-0.2L 21.8 12a 0.2,0.2 0 0 0 0.2,-0.2L 22 11.2a 0.2,0.2 0 0 0 -0.2,-0.2L 21.2 11a 0.2,0.2 0 0 1 -0.2,-0.2L 21 10.2a 0.2,0.2 0 0 0 -0.2,-0.2L 20.2 10a 0.2,0.2 0 0 1 -0.2,-0.2L 20 9.2a 0.2,0.2 0 0 1 0.2,-0.2L 20.8 9a 0.2,0.2 0 0 0 0.2,-0.2z M 2 9.2a 0.2,0.2 0 0 1 0.2,-0.2L 2.8 9a 0.2,0.2 0 0 1 0.2,0.2L 3 9.8a 0.2,0.2 0 0 1 -0.2,0.2L 2.2 10a 0.2,0.2 0 0 1 -0.2,-0.2z M 19 10.2a 0.2,0.2 0 0 1 0.2,-0.2L 19.8 10a 0.2,0.2 0 0 1 0.2,0.2L 20 10.8a 0.2,0.2 0 0 1 -0.2,0.2L 19.2 11a 0.2,0.2 0 0 1 -0.2,-0.2z M 12 11.2a 0.2,0.2 0 0 1 0.2,-0.2L 12.8 11a 0.2,0.2 0 0 1 0.2,0.2L 13 11.8a 0.2,0.2 0 0 0 0.2,0.2L 13.8 12a 0.2,0.2 0 0 1 0.2,0.2L 14 12.8a 0.2,0.2 0 0 0 0.2,0.2L 16.8 13a 0.2,0.2 0 0 1 0.2,0.2L 17 14.8a 0.2,0.2 0 0 1 -0.2,0.2L 16.2 15a 0.2,0.2 0 0 0 -0.2,0.2L 16 15.8a 0.2,0.2 0 0 1 -0.2,0.2L 15.2 16a 0.2,0.2 0 0 1 -0.2,-0.2L 15 15.2a 0.2,0.2 0 0 0 -0.2,-0.2L 14.2 15a 0.2,0.2 0 0 1 -0.2,-0.2L 14 14.2a 0.2,0.2 0 0 0 -0.2,-0.2L 13.2 14a 0.2,0.2 0 0 0 -0.2,0.2L 13 15.8a 0.2,0.2 0 0 1 -0.2,0.2L 12.2 16a 0.2,0.2 0 0 1 -0.2,-0.2L 12 15.2a 0.2,0.2 0 0 0 -0.2,-0.2L 11.2 15a 0.2,0.2 0 0 0 -0.2,0.2L 11 16.8a 0.2,0.2 0 0 0 0.2,0.2L 12.8 17a 0.2,0.2 0 0 1 0.2,0.2L 13 17.8a 0.2,0.2 0 0 1 -0.2,0.2L 12.2 18a 0.2,0.2 0 0 0 -0.2,0.2L 12 18.8a 0.2,0.2 0 0 1 -0.2,0.2L 11.2 19a 0.2,0.2 0 0 1 -0.2,-0.2L 11 18.2a 0.2,0.2 0 0 0 -0.2,-0.2L 10.2 18a 0.2,0.2 0 0 0 -0.2,0.2L 10 19.8a 0.2,0.2 0 0 1 -0.2,0.2L 9.2 20a 0.2,0.2 0 0 0 -0.2,0.2L 9 20.8a 0.2,0.2 0 0 1 -0.2,0.2L 8.2 21a 0.2,0.2 0 0 1 -0.2,-0.2L 8 19.2a 0.2,0.2 0 0 1 0.2,-0.2L 8.8 19a 0.2,0.2 0 0 0 0.2,-0.2L 9 18.2a 0.2,0.2 0 0 0 -0.2,-0.2L 8.2 18a 0.2,0.2 0 0 1 -0.2,-0.2L 8 17.2a 0.2,0.2 0 0 1 0.2,-0.2L 9.8 17a 0.2,0.2 0 0 0 0.2,-0.2L 10 16.2a 0.2,0.2 0 0 0 -0.2,-0.2L 8.2 16a 0.2,0.2 0 0 1 -0.2,-0.2L 8 15.2a 0.2,0.2 0 0 1 0.2,-0.2L 8.8 15a 0.2,0.2 0 0 0 0.2,-0.2L 9 13.2a 0.2,0.2 0 0 1 0.2,-0.2L 10.8 13a 0.2,0.2 0 0 1 0.2,0.2L 11 13.8a 0.2,0.2 0 0 0 0.2,0.2L 11.8 14a 0.2,0.2 0 0 0 0.2,-0.2L 12 13.2a 0.2,0.2 0 0 0 -0.2,-0.2L 11.2 13a 0.2,0.2 0 0 1 -0.2,-0.2L 11 12.2a 0.2,0.2 0 0 1 0.2,-0.2L 11.8 12a 0.2,0.2 0 0 0 0.2,-0.2z M 0 12.2a 0.2,0.2 0 0 1 0.2,-0.2L 0.8 12a 0.2,0.2 0 0 1 0.2,0.2L 1 12.8a 0.2,0.2 0 0 0 0.2,0.2L 1.8 13a 0.2,0.2 0 0 1 0.2,0.2L 2 13.8a 0.2,0.2 0 0 1 -0.2,0.2L 0.2 14a 0.2,0.2 0 0 1 -0.2,-0.2z M 4 12.2a 0.2,0.2 0 0 1 0.2,-0.2L 4.8 12a 0.2,0.2 0 0 1 0.2,0.2L 5 12.8a 0.2,0.2 0 0 1 -0.2,0.2L 4.2 13a 0.2,0.2 0 0 1 -0.2,-0.2z M 6 12.2a 0.2,0.2 0 0 1 0.2,-0.2L 6.8 12a 0.2,0.2 0 0 1 0.2,0.2L 7 12.8a 0.2,0.2 0 0 1 -0.2,0.2L 6.2 13a 0.2,0.2 0 0 1 -0.2,-0.2z M 7 13.2a 0.2,0.2 0 0 1 0.2,-0.2L 7.8 13a 0.2,0.2 0 0 1 0.2,0.2L 8 13.8a 0.2,0.2 0 0 1 -0.2,0.2L 7.2 14a 0.2,0.2 0 0 1 -0.2,-0.2z M 20 13.2a 0.2,0.2 0 0 1 0.2,-0.2L 20.8 13a 0.2,0.2 0 0 1 0.2,0.2L 21 13.8a 0.2,0.2 0 0 0 0.2,0.2L 22.8 14a 0.2,0.2 0 0 1 0.2,0.2L 23 14.8a 0.2,0.2 0 0 0 0.2,0.2L 23.8 15a 0.2,0.2 0 0 1 0.2,0.2L 24 15.8a 0.2,0.2 0 0 1 -0.2,0.2L 23.2 16a 0.2,0.2 0 0 0 -0.2,0.2L 23 16.8a 0.2,0.2 0 0 1 -0.2,0.2L 21.2 17a 0.2,0.2 0 0 1 -0.2,-0.2L 21 16.2a 0.2,0.2 0 0 1 0.2,-0.2L 21.8 16a 0.2,0.2 0 0 0 0.2,-0.2L 22 15.2a 0.2,0.2 0 0 0 -0.2,-0.2L 21.2 15a 0.2,0.2 0 0 0 -0.2,0.2L 21 15.8a 0.2,0.2 0 0 1 -0.2,0.2L 19.2 16a 0.2,0.2 0 0 1 -0.2,-0.2L 19 15.2a 0.2,0.2 0 0 0 -0.2,-0.2L 18.2 15a 0.2,0.2 0 0 1 -0.2,-0.2L 18 14.2a 0.2,0.2 0 0 1 0.2,-0.2L 19.8 14a 0.2,0.2 0 0 0 0.2,-0.2z M 3 14.2a 0.2,0.2 0 0 1 0.2,-0.2L 3.8 14a 0.2,0.2 0 0 1 0.2,0.2L 4 14.8a 0.2,0.2 0 0 1 -0.2,0.2L 3.2 15a 0.2,0.2 0 0 1 -0.2,-0.2z M 6 14.2a 0.2,0.2 0 0 1 0.2,-0.2L 6.8 14a 0.2,0.2 0 0 1 0.2,0.2L 7 14.8a 0.2,0.2 0 0 1 -0.2,0.2L 6.2 15a 0.2,0.2 0 0 1 -0.2,-0.2z M 2 15.2a 0.2,0.2 0 0 1 0.2,-0.2L 2.8 15a 0.2,0.2 0 0 1 0.2,0.2L 3 15.8a 0.2,0.2 0 0 0 0.2,0.2L 3.8 16a 0.2,0.2 0 0 0 0.2,-0.2L 4 15.2a 0.2,0.2 0 0 1 0.2,-0.2L 5.8 15a 0.2,0.2 0 0 1 0.2,0.2L 6 15.8a 0.2,0.2 0 0 0 0.2,0.2L 6.8 16a 0.2,0.2 0 0 1 0.2,0.2L 7 16.8a 0.2,0.2 0 0 1 -0.2,0.2L 0.2 17a 0.2,0.2 0 0 1 -0.2,-0.2L 0 16.2a 0.2,0.2 0 0 1 0.2,-0.2L 1.8 16a 0.2,0.2 0 0 0 0.2,-0.2z M 14 19.2a 0.2,0.2 0 0 1 0.2,-0.2L 14.8 19a 0.2,0.2 0 0 1 0.2,0.2L 15 19.8a 0.2,0.2 0 0 1 -0.2,0.2L 14.2 20a 0.2,0.2 0 0 1 -0.2,-0.2z M 21 19.2a 0.2,0.2 0 0 1 0.2,-0.2L 24.8 19a 0.2,0.2 0 0 1 0.2,0.2L 25 19.8a 0.2,0.2 0 0 1 -0.2,0.2L 23.2 20a 0.2,0.2 0 0 0 -0.2,0.2L 23 20.8a 0.2,0.2 0 0 0 0.2,0.2L 24.8 21a 0.2,0.2 0 0 1 0.2,0.2L 25 21.8a 0.2,0.2 0 0 1 -0.2,0.2L 24.2 22a 0.2,0.2 0 0 0 -0.2,0.2L 24 23.8a 0.2,0.2 0 0 0 0.2,0.2L 24.8 24a 0.2,0.2 0 0 1 0.2,0.2L 25 24.8a 0.2,0.2 0 0 1 -0.2,0.2L 22.2 25a 0.2,0.2 0 0 1 -0.2,-0.2L 22 24.2a 0.2,0.2 0 0 0 -0.2,-0.2L 19.2 24a 0.2,0.2 0 0 1 -0.2,-0.2L 19 23.2a 0.2,0.2 0 0 1 0.2,-0.2L 20.8 23a 0.2,0.2 0 0 0 0.2,-0.2L 21 22.2a 0.2,0.2 0 0 1 0.2,-0.2L 21.8 22a 0.2,0.2 0 0 1 0.2,0.2L 22 22.8a 0.2,0.2 0 0 0 0.2,0.2L 22.8 23a 0.2,0.2 0 0 0 0.2,-0.2L 23 22.2a 0.2,0.2 0 0 0 -0.2,-0.2L 22.2 22a 0.2,0.2 0 0 1 -0.2,-0.2L 22 21.2a 0.2,0.2 0 0 0 -0.2,-0.2L 21.2 21a 0.2,0.2 0 0 1 -0.2,-0.2z M 12 20.2a 0.2,0.2 0 0 1 0.2,-0.2L 13.8 20a 0.2,0.2 0 0 1 0.2,0.2L 14 21.8a 0.2,0.2 0 0 1 -0.2,0.2L 13.2 22a 0.2,0.2 0 0 1 -0.2,-0.2L 13 21.2a 0.2,0.2 0 0 0 -0.2,-0.2L 12.2 21a 0.2,0.2 0 0 1 -0.2,-0.2z M 9 21.2a 0.2,0.2 0 0 1 0.2,-0.2L 9.8 21a 0.2,0.2 0 0 1 0.2,0.2L 10 22.8a 0.2,0.2 0 0 1 -0.2,0.2L 9.2 23a 0.2,0.2 0 0 1 -0.2,-0.2z M 11 21.2a 0.2,0.2 0 0 1 0.2,-0.2L 11.8 21a 0.2,0.2 0 0 1 0.2,0.2L 12 23.8a 0.2,0.2 0 0 1 -0.2,0.2L 11.2 24a 0.2,0.2 0 0 1 -0.2,-0.2z M 15 21.2a 0.2,0.2 0 0 1 0.2,-0.2L 19.8 21a 0.2,0.2 0 0 1 0.2,0.2L 20 21.8a 0.2,0.2 0 0 1 -0.2,0.2L 19.2 22a 0.2,0.2 0 0 0 -0.2,0.2L 19 22.8a 0.2,0.2 0 0 1 -0.2,0.2L 18.2 23a 0.2,0.2 0 0 0 -0.2,0.2L 18 24.8a 0.2,0.2 0 0 1 -0.2,0.2L 17.2 25a 0.2,0.2 0 0 1 -0.2,-0.2L 17 22.2a 0.2,0.2 0 0 0 -0.2,-0.2L 15.2 22a 0.2,0.2 0 0 1 -0.2,-0.2z M 14 22.2a 0.2,0.2 0 0 1 0.2,-0.2L 14.8 22a 0.2,0.2 0 0 1 0.2,0.2L 15 22.8a 0.2,0.2 0 0 1 -0.2,0.2L 14.2 23a 0.2,0.2 0 0 1 -0.2,-0.2z M 8 23.2a 0.2,0.2 0 0 1 0.2,-0.2L 8.8 23a 0.2,0.2 0 0 1 0.2,0.2L 9 23.8a 0.2,0.2 0 0 0 0.2,0.2L 10.8 24a 0.2,0.2 0 0 1 0.2,0.2L 11 24.8a 0.2,0.2 0 0 1 -0.2,0.2L 8.2 25a 0.2,0.2 0 0 1 -0.2,-0.2z M 15 23.2a 0.2,0.2 0 0 1 0.2,-0.2L 15.8 23a 0.2,0.2 0 0 1 0.2,0.2L 16 24.8a 0.2,0.2 0 0 1 -0.2,0.2L 15.2 25a 0.2,0.2 0 0 1 -0.2,-0.2z M 13 24.2a 0.2,0.2 0 0 1 0.2,-0.2L 13.8 24a 0.2,0.2 0 0 1 0.2,0.2L 14 24.8a 0.2,0.2 0 0 1 -0.2,0.2L 13.2 25a 0.2,0.2 0 0 1 -0.2,-0.2z"></path><path id="qr squares" d="M1.05,0h4.9a1.05,1.05 0 0 1 1.05,1.05v4.9a1.05,1.05 0 0 1 -1.05,1.05h-4.9a1.05,1.05 0 0 1 -1.05,-1.05v-4.9a1.05,1.05 0 0 1 1.05,-1.05zM1.75,1h3.5a0.75,0.75 0 0 1 0.75,0.75v3.5a0.75,0.75 0 0 1 -0.75,0.75h-3.5a0.75,0.75 0 0 1 -0.75,-0.75v-3.5a0.75,0.75 0 0 1 0.75,-0.75zM3.5,2h0a1.5,1.5 0 0 1 1.5,1.5v0a1.5,1.5 0 0 1 -1.5,1.5h0a1.5,1.5 0 0 1 -1.5,-1.5v0a1.5,1.5 0 0 1 1.5,-1.5z M19.05,0h4.9a1.05,1.05 0 0 1 1.05,1.05v4.9a1.05,1.05 0 0 1 -1.05,1.05h-4.9a1.05,1.05 0 0 1 -1.05,-1.05v-4.9a1.05,1.05 0 0 1 1.05,-1.05zM19.75,1h3.5a0.75,0.75 0 0 1 0.75,0.75v3.5a0.75,0.75 0 0 1 -0.75,0.75h-3.5a0.75,0.75 0 0 1 -0.75,-0.75v-3.5a0.75,0.75 0 0 1 0.75,-0.75zM21.5,2h0a1.5,1.5 0 0 1 1.5,1.5v0a1.5,1.5 0 0 1 -1.5,1.5h0a1.5,1.5 0 0 1 -1.5,-1.5v0a1.5,1.5 0 0 1 1.5,-1.5z M1.05,18h4.9a1.05,1.05 0 0 1 1.05,1.05v4.9a1.05,1.05 0 0 1 -1.05,1.05h-4.9a1.05,1.05 0 0 1 -1.05,-1.05v-4.9a1.05,1.05 0 0 1 1.05,-1.05zM1.75,19h3.5a0.75,0.75 0 0 1 0.75,0.75v3.5a0.75,0.75 0 0 1 -0.75,0.75h-3.5a0.75,0.75 0 0 1 -0.75,-0.75v-3.5a0.75,0.75 0 0 1 0.75,-0.75zM3.5,20h0a1.5,1.5 0 0 1 1.5,1.5v0a1.5,1.5 0 0 1 -1.5,1.5h0a1.5,1.5 0 0 1 -1.5,-1.5v0a1.5,1.5 0 0 1 1.5,-1.5zM18.5,16h0a2.5,2.5 0 0 1 2.5,2.5v0a2.5,2.5 0 0 1 -2.5,2.5h0a2.5,2.5 0 0 1 -2.5,-2.5v0a2.5,2.5 0 0 1 2.5,-2.5zM18.5,17h0a1.5,1.5 0 0 1 1.5,1.5v0a1.5,1.5 0 0 1 -1.5,1.5h0a1.5,1.5 0 0 1 -1.5,-1.5v0a1.5,1.5 0 0 1 1.5,-1.5zM18.5,18h0a0.5,0.5 0 0 1 0.5,0.5v0a0.5,0.5 0 0 1 -0.5,0.5h0a0.5,0.5 0 0 1 -0.5,-0.5v0a0.5,0.5 0 0 1 0.5,-0.5z" fill-rule="evenodd" fill-opacity="1" fill="rgb(66, 66, 66)"></path></svg>